<svg width="50" height="50" viewBox="0 0 50 50" fill="none" xmlns="http://www.w3.org/2000/svg">
<path fill-rule="evenodd" clip-rule="evenodd" d="M50 25C50 38.8071 38.8071 50 25 50C11.1929 50 0 38.8071 0 25C0 11.1929 11.1929 0 25 0C38.8071 0 50 11.1929 50 25ZM18.6582 17.4C19.2405 17.1067 19.5316 16.2267 19.5316 15.64C19.5316 14.76 19.2405 14.1733 18.9494 13.5867C18.3671 13.2933 17.7848 13 16.9114 13C16.038 13 15.1646 13.2933 14.8734 13.88C14.2911 14.1733 14 14.76 14 15.64C14 16.2267 14.2911 16.8133 14.5823 17.4C15.1646 17.9867 15.7468 18.28 16.6203 18.28C17.4937 18.28 18.3671 17.9867 18.6582 17.4ZM19.2405 35V20.04H14.2911V35H19.2405ZM37 35V26.4933C37 24.44 36.4177 22.68 35.2532 21.5067C34.3797 20.3333 32.924 19.7467 31.1772 19.7467C30.5949 19.7467 30.0127 19.7467 29.4304 20.04C29.2848 20.1867 29.0665 20.26 28.8481 20.3333C28.6297 20.4067 28.4114 20.48 28.2658 20.6267L27.3924 21.5067C27.2468 21.6533 27.1741 21.8 27.1013 21.9467C27.0285 22.0933 26.9557 22.24 26.8101 22.3867V20.3333H21.8608V20.92V25.32V35H26.8101V26.7867C26.8101 26.443 26.91 26.2 26.9928 25.9987C27.0513 25.8563 27.1013 25.7348 27.1013 25.6133C27.1013 25.0267 27.3924 24.7333 27.9747 24.44C28.2658 24.1467 28.8481 23.8533 29.4304 23.8533C30.3038 23.8533 30.8861 24.1467 31.4684 24.7333C31.7595 25.32 32.0506 25.9067 32.0506 27.08V35H37Z" fill="#460B38"/>
</svg>
