<svg width="50" height="50" viewBox="0 0 50 50" fill="none" xmlns="http://www.w3.org/2000/svg">
<path fill-rule="evenodd" clip-rule="evenodd" d="M50 25C50 38.8071 38.8071 50 25 50C11.1929 50 0 38.8071 0 25C0 11.1929 11.1929 0 25 0C38.8071 0 50 11.1929 50 25ZM28.484 22.4791C31.1026 25.0984 31.1033 29.3946 28.484 32.0139L23.9998 36.4974C21.379 39.1167 17.0843 39.1159 14.4643 36.4966C11.845 33.8774 11.8457 29.5819 14.4643 26.9619L18.8954 22.5299C19.1934 22.2328 19.7043 22.4769 19.6596 22.8953C19.5929 23.514 19.6035 24.1409 19.6877 24.7573C19.7066 24.8975 19.6596 25.034 19.5595 25.1348L16.0988 28.5964C14.3733 30.3218 14.374 33.1374 16.0995 34.8629C17.8242 36.5884 20.6406 36.5876 22.3653 34.8629L26.8495 30.3794C28.5758 28.654 28.5735 25.8376 26.848 24.1121C26.1779 23.4412 25.3166 23.0091 24.3789 22.8688C24.0824 22.8248 23.9126 22.5102 24.0377 22.2373C24.2993 21.6667 24.6319 21.3337 25.0602 20.9048L25.09 20.875C25.206 20.759 25.3689 20.7158 25.5266 20.759C26.6471 21.0668 27.6622 21.6581 28.484 22.4791ZM36.4973 24.0006C39.1166 21.3813 39.1158 17.0844 36.4973 14.4651C33.8772 11.8458 29.581 11.845 26.961 14.4643L22.4775 18.9478C19.859 21.5671 19.859 25.8633 22.4775 28.4826C23.2993 29.3044 24.3144 29.8942 25.4341 30.2035C25.5926 30.2467 25.7556 30.2042 25.8716 30.0883L25.8872 30.0726C26.3238 29.6361 26.6586 29.3013 26.9246 28.7236C27.0497 28.4515 26.8784 28.1384 26.5827 28.0937C25.6449 27.9519 24.7844 27.5205 24.1135 26.8496C22.3873 25.1249 22.3858 22.3077 24.112 20.5823L28.5955 16.0988C30.3202 14.3733 33.1373 14.3733 34.862 16.0988C36.5883 17.8243 36.589 20.6407 34.8628 22.3661L31.402 25.8269C31.3019 25.9277 31.2557 26.0634 31.2746 26.2044C31.358 26.8208 31.3687 27.4477 31.3019 28.0664C31.258 28.4841 31.7682 28.729 32.0654 28.4318L36.4973 24.0006Z" fill="#460B38"/>
</svg>
