<svg width="50" height="50" viewBox="0 0 50 50" fill="none" xmlns="http://www.w3.org/2000/svg">
<path fill-rule="evenodd" clip-rule="evenodd" d="M50 25C50 38.8071 38.8071 50 25 50C11.1929 50 0 38.8071 0 25C0 11.1929 11.1929 0 25 0C38.8071 0 50 11.1929 50 25ZM34.389 15.1667C36.1272 15.2646 36.9809 15.522 37.7675 16.9212C38.5868 18.3187 39 20.7257 39 24.9651V24.9706V24.9796C39 29.1991 38.5868 31.6243 37.7693 33.0072C36.9827 34.4064 36.129 34.6602 34.3908 34.778C32.6526 34.8777 28.2863 34.9375 24.5036 34.9375C20.7137 34.9375 16.3456 34.8777 14.6092 34.7762C12.8746 34.6584 12.0209 34.4046 11.2271 33.0054C10.4169 31.6224 10 29.1973 10 24.9778V24.9742V24.9688V24.9633C10 20.7257 10.4169 18.3187 11.2271 16.9212C12.0209 15.5202 12.8764 15.2646 14.611 15.1649C16.3456 15.0489 20.7137 15 24.5036 15C28.2863 15 32.6526 15.0489 34.389 15.1667ZM20.875 19.5312V30.4062L29.9375 24.9688L20.875 19.5312Z" fill="#460B38"/>
</svg>
