<svg width="50" height="50" viewBox="0 0 50 50" fill="none" xmlns="http://www.w3.org/2000/svg">
<path fill-rule="evenodd" clip-rule="evenodd" d="M25 50C38.8071 50 50 38.8071 50 25C50 11.1929 38.8071 0 25 0C11.1929 0 0 11.1929 0 25C0 38.8071 11.1929 50 25 50ZM19.28 13H29.68C33.684 13 36.96 16.15 36.96 20V30C36.96 33.85 33.684 37 29.68 37H19.28C15.276 37 12 33.85 12 30V20C12 16.15 15.276 13 19.28 13ZM33.3497 16.4712C32.3617 15.5274 31.0552 15.0024 29.6772 15.0024H19.2771C17.8992 15.0024 16.5862 15.5212 15.6047 16.4712C14.6231 17.4212 14.0772 18.6774 14.0772 20.0024V30.0024C14.0772 31.3274 14.6166 32.5899 15.6047 33.5337C16.5926 34.4774 17.8992 35.0024 19.2771 35.0024H29.6772C31.0552 35.0024 32.3682 34.4837 33.3497 33.5337C34.3312 32.5837 34.8772 31.3274 34.8772 30.0024V20.0024C34.8772 18.6774 34.3377 17.4149 33.3497 16.4712ZM29.6797 18.5018C29.6797 19.3329 30.3752 20.0016 31.2397 20.0016C32.0977 20.0016 32.7997 19.3329 32.7997 18.5018C32.7997 17.6706 32.0977 17.002 31.2397 17.002C30.3752 17.002 29.6797 17.6706 29.6797 18.5018ZM28.6403 24.9992C28.6403 22.7928 26.7748 20.999 24.4803 20.999C22.1858 20.999 20.3203 22.7928 20.3203 24.9992C20.3203 27.2055 22.1858 28.9993 24.4803 28.9993C26.7748 28.9993 28.6403 27.2055 28.6403 24.9992ZM24.4822 19.0044C21.0372 19.0044 18.2422 21.6919 18.2422 25.0044C18.2422 28.3169 21.0372 31.0044 24.4822 31.0044C27.9272 31.0044 30.7222 28.3169 30.7222 25.0044C30.7222 21.6919 27.9272 19.0044 24.4822 19.0044Z" fill="#460B38"/>
</svg>
