<svg width="50" height="50" viewBox="0 0 50 50" fill="none" xmlns="http://www.w3.org/2000/svg">
<path fill-rule="evenodd" clip-rule="evenodd" d="M50 25C50 38.8071 38.8071 50 25 50C11.1929 50 0 38.8071 0 25C0 11.1929 11.1929 0 25 0C38.8071 0 50 11.1929 50 25ZM34.8661 18.192C35.9426 18.066 36.9643 17.793 37.92 17.3888C37.206 18.4125 36.3052 19.305 35.267 20.0243C35.278 20.2395 35.2835 20.46 35.2835 20.6805C35.2835 27.4058 29.9336 35.16 20.1402 35.16C17.1412 35.16 14.3454 34.32 12 32.8605C12.4174 32.9078 12.8404 32.934 13.2688 32.934C15.7625 32.934 18.0584 32.1203 19.8765 30.7552C17.5476 30.7133 15.5812 29.2433 14.9056 27.222C15.2297 27.285 15.5648 27.3165 15.9053 27.3165C16.3887 27.3165 16.861 27.2535 17.306 27.138C14.8727 26.6708 13.0381 24.618 13.0381 22.1505V22.0875C13.7522 22.4708 14.576 22.7018 15.4549 22.7227C14.0268 21.8093 13.082 20.25 13.082 18.486C13.082 17.5568 13.3457 16.68 13.8016 15.9293C16.4216 19.011 20.3434 21.0375 24.765 21.2475C24.6716 20.8748 24.6277 20.4862 24.6277 20.0872C24.6277 17.2785 27.006 15 29.9446 15C31.4716 15 32.8557 15.6195 33.8279 16.6118C35.0418 16.386 36.1788 15.9608 37.206 15.378C36.8105 16.5645 35.9646 17.562 34.8661 18.192Z" fill="#460B38"/>
</svg>
