<?xml version="1.0" encoding="utf-8"?>
<!-- Generator: Adobe Illustrator 24.1.0, SVG Export Plug-In . SVG Version: 6.00 Build 0)  -->
<svg version="1.1" id="Layer_1" xmlns="http://www.w3.org/2000/svg" xmlns:xlink="http://www.w3.org/1999/xlink" x="0px" y="0px"
	 viewBox="0 0 971.3 265.8" style="enable-background:new 0 0 971.3 265.8;" xml:space="preserve">
<style type="text/css">
	.st0{fill:#460B38;}
	.st1{fill:#E6EAFD;}
</style>
<g>
	<path class="st0" d="M836,264.9H135.3c-72.9,0-132-59.1-132-132l0,0c0-72.9,59.1-132,132-132H836c72.9,0,132,59.1,132,132l0,0
		C968,205.8,908.9,264.9,836,264.9z"/>
	<g>
		<path class="st1" d="M201,176.4V69h18.6v107.4H201z"/>
		<path class="st1" d="M313.4,143.3h-63.8c2.6,11.4,10.9,18.3,22.7,18.3c7.3,0,13.6-1.9,17.6-7.8h20.5
			c-4.5,15.2-20.2,24.2-38.1,24.2c-24.3,0-41.6-17.2-41.6-41.6c0-24.3,17.3-41.6,41.6-41.6s41.6,17.3,41.6,41.6
			C314,138.8,313.7,141.1,313.4,143.3z M250.1,127.6h44.2c-2.7-10.4-10.9-16.7-22-16.7C261.1,111,253,117.3,250.1,127.6z"/>
		<path class="st1" d="M365.6,176.4h-19.3l-31.7-80.2h19.9l21.5,55.9l21.5-55.9h19.9L365.6,176.4z"/>
		<path class="st1" d="M480.7,143.3H417c2.6,11.4,10.9,18.3,22.7,18.3c7.3,0,13.6-1.9,17.6-7.8h20.5c-4.5,15.2-20.2,24.2-38.1,24.2
			c-24.3,0-41.6-17.2-41.6-41.6c0-24.3,17.3-41.6,41.6-41.6c24.3,0,41.6,17.3,41.6,41.6C481.4,138.8,481,141.1,480.7,143.3z
			 M417.5,127.6h44.2c-2.7-10.4-10.9-16.7-22-16.7C428.5,111,420.3,117.3,417.5,127.6z"/>
		<path class="st1" d="M492.1,96.2h18.6v10.5L535,96.2v19.1l-24.3,9.9v51.1h-18.6L492.1,96.2L492.1,96.2z"/>
		<path class="st1" d="M595.4,113.2h-24.6V148c0,7.5,3.9,11.4,11.5,11.4h13.1v17H581c-19.2,0-28.5-9.6-28.5-28.4v-34.8h-8.8v-17h8.8
			V69h18.3v27.2h24.6L595.4,113.2L595.4,113.2z"/>
		<path class="st1" d="M683.8,143.3h-63.8c2.6,11.4,10.9,18.3,22.7,18.3c7.3,0,13.6-1.9,17.6-7.8h20.5
			c-4.5,15.2-20.2,24.2-38.1,24.2c-24.3,0-41.6-17.2-41.6-41.6c0-24.3,17.3-41.6,41.6-41.6s41.6,17.3,41.6,41.6
			C684.4,138.8,684.1,141.1,683.8,143.3z M620.6,127.6h44.2c-2.7-10.4-10.9-16.7-22-16.7C631.6,111,623.5,117.3,620.6,127.6z"/>
		<path class="st1" d="M785.9,69h18.6v31.9c5.2-4,11.8-6.3,19.4-6.3c18.9,0,32.2,13.9,32.2,33.7v48.1h-18.4v-48.1
			c0-9.9-6.8-16.7-16.5-16.7c-10.2,0-16.7,6.8-16.7,16.7v48.1h-18.6V69z"/>
		<path class="st1" d="M171.4,143.1c-2.4,11.1-10.7,17.9-22.3,17.9c-14.1,0-23.4-9.7-23.4-24.6s9.3-24.6,23.4-24.6
			c10.9,0,19,6,22,16h18.8c-3.7-19.8-19.5-33-40.6-33c-24.3,0-41.6,17.3-41.6,41.6c0,24.5,17.3,41.6,41.6,41.6c22,0,38-14,41-34.9
			L171.4,143.1L171.4,143.1z"/>
		<path class="st1" d="M756.2,143.1c-2.4,11.1-10.7,17.9-22.3,17.9c-14.1,0-23.3-9.7-23.3-24.6s9.3-24.6,23.3-24.6
			c10.9,0,19,6,22,16h18.8c-3.7-19.8-19.5-33-40.6-33c-24.3,0-41.6,17.3-41.6,41.6c0,24.5,17.3,41.6,41.6,41.6c22,0,38-14,41-34.9
			L756.2,143.1L756.2,143.1z"/>
	</g>
</g>
</svg>
