<?xml version="1.0" encoding="UTF-8"?>
<svg width="132px" height="132px" viewBox="0 0 132 132" version="1.1" xmlns="http://www.w3.org/2000/svg" xmlns:xlink="http://www.w3.org/1999/xlink">
    <!-- Generator: Sketch 43.2 (39069) - http://www.bohemiancoding.com/sketch -->
    <title>Untitled</title>
    <desc>Created with Sketch.</desc>
    <defs></defs>
    <g id="Page-1" stroke="none" stroke-width="1" fill="none" fill-rule="evenodd">
        <g id="Group">
            <rect id="Rectangle" fill="#F94C00" x="0" y="0" width="132" height="132"></rect>
            <path d="M68.9459042,101.116022 C74.4142468,101.116022 79.1205367,100.172201 83.064915,98.2845304 C87.0092933,96.3968598 91.1328997,93.3812362 95.4358578,89.2375691 L105.655332,100.01105 C95.7047416,111.337073 83.6252642,117 69.4165379,117 C55.2078115,117 43.4196759,112.303914 34.0517774,102.911602 C24.683879,93.5192901 20,81.6409558 20,67.2762431 C20,52.9115304 24.7735226,40.941116 34.320711,31.3646409 C43.8678994,21.7881657 55.9249658,17 70.492272,17 C85.0595782,17 97.2286992,22.5248066 107,33.5745856 L96.9149923,44.9005525 C92.4327442,40.4806409 88.1970833,37.3959572 84.2078825,35.6464088 C80.2186818,33.8968605 75.5348028,33.0220994 70.1561051,33.0220994 C60.6537392,33.0220994 52.6754573,36.1758432 46.2210201,42.4834254 C39.7665829,48.7910076 36.5394127,56.8480173 36.5394127,66.6546961 C36.5394127,76.461375 39.744172,84.6565048 46.1537867,91.2403315 C52.5634014,97.8241581 60.160698,101.116022 68.9459042,101.116022 Z" id="C" fill="#FFFFFF" transform="translate(63.500000, 67.000000) rotate(-2.000000) translate(-63.500000, -67.000000) "></path>
        </g>
    </g>
</svg>