<svg xmlns="http://www.w3.org/2000/svg" xmlns:xlink="http://www.w3.org/1999/xlink" version="1.1" x="0px" y="0px" viewBox="0 0 15.7 15.7" enable-background="new 0 0 15.7 15.7" xml:space="preserve"><style>.style0{fill:	#FFFFFF;}</style><path d="M7.8 0C3.5 0 0 3.5 0 7.8s3.5 7.8 7.8 7.8s7.8-3.5 7.8-7.8S12.2 0 7.8 0z M8.8 13.9C8.8 13.9 8.8 13.9 8.8 13.9l0-2.1c0-0.6-0.4-1-1-1s-1 0.4-1 1v2c0 0 0 0 0 0.1c-2.6-0.4-4.7-2.5-5.1-5.1c0 0 0 0 0.1 0h2 c0.6 0 1-0.4 1-1s-0.4-1-1-1h-2c0 0 0 0-0.1 0c0.4-2.6 2.5-4.7 5.1-5.1c0 0 0 0 0 0.1v2c0 0.6 0.4 1 1 1s1-0.4 1-1v-2c0 0 0 0 0-0.1 c2.6 0.4 4.7 2.5 5.1 5.1c0 0 0 0-0.1 0h-2c-0.6 0-1 0.4-1 1s0.4 1 1 1h2c0 0 0 0 0.1 0C13.5 11.4 11.4 13.5 8.8 13.9z" class="style0"/></svg>