<?xml version="1.0" encoding="utf-8"?>
<!-- Generator: Adobe Illustrator 18.0.0, SVG Export Plug-In . SVG Version: 6.00 Build 0)  -->
<!DOCTYPE svg PUBLIC "-//W3C//DTD SVG 1.1//EN" "http://www.w3.org/Graphics/SVG/1.1/DTD/svg11.dtd">
<svg version="1.1" id="logo_text" xmlns="http://www.w3.org/2000/svg" xmlns:xlink="http://www.w3.org/1999/xlink" x="0px" y="0px"
	 viewBox="0 0 1499.9 246.8" enable-background="new 0 0 1499.9 246.8" xml:space="preserve">
<path fill="#FFFFFF" d="M0,157.4c0-52.1,37.7-89.1,90.2-89.1c34.9,0,56,15.1,67.3,30.6l-29.2,27.5c-8.1-12-20.4-18.3-35.9-18.3
	c-27.1,0-46.1,19.7-46.1,49.3s19,49.7,46.1,49.7c15.5,0,35.9-18.3,35.9-18.3l29.2,27.1c-11.3,15.9-32.4,31-67.3,31
	C37.7,246.9,0,209.9,0,157.4z"/>
<path fill="#FFFFFF" d="M169.6,246.9V0h50.1v246.9H169.6z"/>
<path fill="#FFFFFF" d="M231.8,157c0-49.3,36.3-89.1,88.1-89.1c50.7,0,85.3,38.1,85.3,93.7v9.9H278.6c2.8,21.5,20.1,39.5,49,39.5
	c14.4,0,34.5-6.3,45.5-16.9l19.7,28.9c-16.9,15.5-43.7,23.6-70.1,23.6C270.9,246.5,231.8,211.7,231.8,157z M319.9,103.5
	c-27.8,0-39.8,20.8-41.9,37.7h83.9C360.7,125,349.5,103.5,319.9,103.5z"/>
<path fill="#FFFFFF" d="M461.4,246.9L389.7,68.3H440l46.6,124.2l46.6-124.2h50.7l-71.7,178.6H461.4z"/>
<path fill="#FFFFFF" d="M567.4,157.4c0-49.3,36.3-89.1,88.1-89.1c50.7,0,85.3,38.1,85.3,93.7v9.9H614.2c2.8,21.5,20.1,39.5,49,39.5
	c14.4,0,34.5-6.3,45.5-16.9l19.7,28.9c-16.9,15.5-43.7,23.6-70.1,23.6C606.5,246.9,567.4,212,567.4,157.4z M655.5,103.8
	c-27.8,0-39.8,20.8-41.9,37.7h83.9C696.3,125.3,685.1,103.8,655.5,103.8z"/>
<path fill="#FFFFFF" d="M752.8,246.9V72.6h45.8v23.8c12.3-15.5,33.9-28.1,55.6-28.1V113c-3.2-0.7-7.6-1.1-12.6-1.1
	c-15.2,0-35.4,8.7-42.9,19.8v115.1H752.8z"/>
<path fill="#FFFFFF" d="M894.2,200.9v-87.8h-27.9V68.2h27.9V26.1h44.6v42.2h34.1v44.9h-34.1v75.9c0,10.4,5.6,18.5,15.3,18.5
	c6.6,0,12.9-2.4,15.3-4.9l9.4,33.4c-6.6,5.9-18.5,10.8-36.9,10.8C910.9,246.9,894.2,230.8,894.2,200.9z"/>
<path fill="#FFFFFF" d="M976.8,157.4c0-49.3,36.3-89.2,88.1-89.2c50.7,0,85.3,38.1,85.3,93.7v9.9h-126.5c2.8,21.5,20.1,39.5,49,39.5
	c14.4,0,34.5-6.3,45.5-16.9l19.7,28.9c-16.9,15.5-43.7,23.6-70.1,23.6C1015.9,246.9,976.8,212,976.8,157.4z M1064.9,103.8
	c-27.8,0-39.8,20.8-41.9,37.7h83.9C1105.8,125.3,1094.5,103.8,1064.9,103.8z"/>
<path fill="#FFFFFF" d="M1162.3,157.4c0-52.1,37.7-89.1,90.2-89.1c34.9,0,56,15.1,67.3,30.6l-29.2,27.5c-8.1-12-20.4-18.3-35.9-18.3
	c-27.1,0-46.1,19.7-46.1,49.3s19,49.7,46.1,49.7c15.5,0,27.8-7,35.9-18.3l29.2,27.1c-11.3,15.8-32.4,31-67.3,31
	C1200,246.9,1162.3,209.9,1162.3,157.4z"/>
<path fill="#FFFFFF" d="M1452.9,246.8V138c0-24.8-13-25-33.3-25c-18.1,0-32.6,2.7-40.7,13.5v120.3h-47V-0.1h47v91.4
	c11.5-13.7,33.7-23.1,62.9-23.1c39.2,0,58.1,16.8,58.1,51.6v127H1452.9z"/>
</svg>
